<svg xmlns="http://www.w3.org/2000/svg" xmlns:xlink="http://www.w3.org/1999/xlink" width="22" height="19" version="1.1" style=""><rect id="backgroundrect" width="100%" height="100%" x="0" y="0" fill="none" stroke="none"/>
    <!-- Generator: Sketch 55 (78076) - https://sketchapp.com -->
    <title>Camera</title>
    <desc>Created with Sketch.</desc>
    
<g class="currentLayer" style=""><title>Layer 1</title><g id="Web" stroke="#ffffff" stroke-width="1" fill="#ffffff" fill-rule="evenodd" class="" fill-opacity="1" stroke-opacity="1">
        <g id="Home" stroke="#ffffff" stroke-width="1.41176471" fill="#ffffff">
            <g id="Camera" fill="#ffffff" stroke="#ffffff">
                <path d="M6.721991419527967,1.251534527551268 L5.618365999528124,2.857143137551269 L3.0663449995281553,2.857143137551269 C1.3739017195280212,2.857143137551269 -1.7471847857386535e-8,4.226754237551269 -1.7471847857386535e-8,5.913333537551271 L-1.7471847857386535e-8,15.532045127551271 C-1.7471847857386535e-8,17.215563827551268 1.3747861795279732,18.58823552755127 3.0663449995281553,18.58823552755127 L18.521890229528026,18.58823552755127 C20.21433352952795,18.58823552755127 21.58823522952798,17.21862442755127 21.58823522952798,15.532045127551271 L21.58823522952798,5.913333537551271 C21.58823522952798,4.22981487755127 20.213449129528044,2.857143137551269 18.521890229528026,2.857143137551269 L15.95794452952805,2.857143137551269 L14.863291029528,1.2460211775512704 C14.411079929528114,0.580452337551268 13.312529329527933,2.805512693271339e-7 12.50413712952809,2.805512693271339e-7 L9.097241099527992,2.805512693271339e-7 C8.292592399528075,2.805512693271339e-7 7.180146499528064,0.5849879575512702 6.721991419527967,1.251534527551268 z" id="Combined-Shape" fill="#ffffff" stroke="#ffffff"/>
                <ellipse id="Oval-2" cx="10.794117629528046" cy="10.722689628601074" rx="5.044117450714111" ry="5.008403301239014" fill="#ffffff" stroke="#ffffff"/>
            </g>
        </g>
    </g></g></svg>