<svg xmlns="http://www.w3.org/2000/svg" xmlns:xlink="http://www.w3.org/1999/xlink" width="40" height="40" version="1.1" style=""><rect id="backgroundrect" width="100%" height="100%" x="0" y="0" fill="none" stroke="none" class="" style=""/>
    <!-- Generator: Sketch 55 (78076) - https://sketchapp.com -->
    <title>Camera</title>
    <desc>Created with Sketch.</desc>
    
<g class="currentLayer" style=""><title>Layer 1</title><g id="Web" stroke="#ffffff" stroke-width="1" fill="none" fill-rule="evenodd" class="selected" stroke-opacity="1">
        <g id="Home" stroke="#ffffff" stroke-width="1.41176471" fill="none">
            <g id="Camera" fill="none" stroke="#ffffff">
                <path d="M15.927873491976698,11.957416599999998 L14.824248071976854,13.56302521 L12.272227071976886,13.56302521 C10.579783791976752,13.56302521 9.205882054976883,14.93263631 9.205882054976883,16.61921561 L9.205882054976883,26.2379272 C9.205882054976883,27.9214459 10.580668251976704,29.2941176 12.272227071976886,29.2941176 L27.727772301976756,29.2941176 C29.42021560197668,29.2941176 30.794117301976712,27.9245065 30.794117301976712,26.2379272 L30.794117301976712,16.61921561 C30.794117301976712,14.93569695 29.419331201976775,13.56302521 27.727772301976756,13.56302521 L25.16382660197678,13.56302521 L24.06917310197673,11.95190325 C23.616962001976844,11.286334409999998 22.518411401976664,10.705882353 21.71001920197682,10.705882353 L18.303123171976722,10.705882353 C17.498474471976806,10.705882353 16.386028571976794,11.29087003 15.927873491976698,11.957416599999998 z" id="Combined-Shape" fill="none" stroke="#ffffff"/>
                <ellipse id="Oval-2" cx="20" cy="21.428571701049805" rx="5.044117450714111" ry="5.008403301239014" fill="none" stroke="#ffffff"/>
            </g>
        </g>
    </g></g></svg>